<?xml version="1.0" standalone="no"?>
<!DOCTYPE svg PUBLIC "-//W3C//DTD SVG 20010904//EN"
 "http://www.w3.org/TR/2001/REC-SVG-20010904/DTD/svg10.dtd">
<svg version="1.0" xmlns="http://www.w3.org/2000/svg"
 width="323.000000pt" height="176.000000pt" viewBox="0 0 323.000000 176.000000"
 preserveAspectRatio="xMidYMid meet">
<metadata>
Created by potrace 1.14, written by Peter Selinger 2001-2017
</metadata>
<g transform="translate(0.000000,176.000000) scale(0.100000,-0.100000)"
fill="#000000" stroke="none">
<path d="M0 880 l0 -880 1615 0 1615 0 0 880 0 880 -1615 0 -1615 0 0 -880z
m2898 714 c26 -18 29 -61 7 -90 -15 -20 -18 -15 -15 27 3 61 -103 50 -172 -18
-108 -105 -246 -541 -251 -788 -1 -82 1 -95 26 -137 32 -55 34 -74 7 -83 -41
-13 -98 44 -125 125 -42 127 37 483 156 703 26 48 19 57 -15 20 -76 -82 -196
-288 -292 -502 -36 -80 -69 -155 -74 -166 -5 -11 -20 -46 -34 -77 -39 -90 -50
-77 -42 50 4 59 11 196 16 304 8 169 13 206 34 268 14 40 31 79 37 86 6 7 9
19 7 26 -10 29 -77 -66 -106 -151 -33 -93 -74 -230 -92 -301 -41 -157 -112
-320 -168 -382 -82 -90 -280 -149 -395 -117 -77 21 -129 104 -129 205 0 131
106 224 255 224 97 0 163 -37 193 -109 22 -53 17 -58 -23 -19 -44 43 -98 68
-145 68 -87 0 -172 -51 -204 -121 -17 -39 -17 -42 1 -96 25 -71 66 -105 139
-111 111 -9 233 88 311 249 28 57 95 223 95 236 1 5 9 26 20 48 11 22 19 46
20 53 0 22 61 193 87 247 14 28 45 71 70 96 l45 47 -38 6 c-62 10 -102 9 -229
-3 -265 -24 -340 -56 -352 -150 -13 -93 35 -172 112 -187 109 -20 206 21 248
106 30 60 53 55 43 -10 -9 -60 -51 -107 -123 -141 -132 -62 -272 -27 -327 83
-14 28 -26 67 -26 85 0 18 -4 33 -8 33 -13 0 -90 -106 -121 -168 -10 -20 -45
-84 -78 -142 -33 -58 -98 -181 -144 -275 -101 -206 -175 -323 -231 -364 -81
-60 -124 -31 -122 83 1 69 8 94 80 311 46 142 64 212 78 310 7 55 11 105 9
112 -14 37 -390 5 -483 -41 -51 -25 -90 -82 -90 -131 0 -38 36 -102 72 -128
56 -42 172 -38 238 8 19 13 46 45 60 70 27 50 50 59 50 20 0 -117 -185 -231
-316 -196 -102 27 -163 108 -164 214 0 134 74 198 268 231 51 9 149 16 222 16
109 0 130 2 130 15 0 21 18 19 74 -10 27 -14 57 -25 65 -25 37 0 91 -22 91
-36 0 -13 -11 -14 -72 -8 -67 7 -71 6 -63 -12 17 -41 16 -74 -10 -194 -26
-127 -60 -235 -115 -375 -56 -143 -74 -215 -52 -215 10 0 48 41 84 91 15 20
66 117 113 215 248 513 340 660 478 758 67 48 127 74 187 82 234 30 428 30
535 -1 79 -23 84 -29 53 -62 -38 -39 -47 -71 -58 -192 -6 -58 -14 -133 -19
-166 -20 -129 -10 -147 29 -58 67 154 146 283 251 408 109 131 158 168 273
211 72 27 123 30 154 8z"/>
</g>
</svg>
